<svg width="512" height="512" viewBox="0 0 512 512" fill="none" xmlns="http://www.w3.org/2000/svg">
<g id="sun 1">
<path id="sunrays" d="M507.834 301.608L453.065 253.296L505.897 202.897C507.838 201.045 508.637 198.306 507.996 195.708C507.354 193.111 505.367 191.053 502.785 190.307L432.469 170.015L458.457 101.959C459.412 99.459 458.952 96.643 457.253 94.57C455.553 92.498 452.87 91.485 450.215 91.913L377.941 103.565L372.063 31.004C371.847 28.338 370.217 25.989 367.788 24.843C365.359 23.697 362.497 23.926 360.284 25.444L300.018 66.786L263.409 3.742C262.064 1.426 259.579 0 256.889 0C254.199 0 251.715 1.426 250.37 3.742L208.347 76.11L135.657 34.157C133.33 32.814 130.46 32.808 128.129 34.139C125.796 35.47 124.356 37.938 124.349 40.612L124.173 113.407L51.208 107.393C48.533 107.173 45.933 108.39 44.401 110.587C42.868 112.784 42.63 115.628 43.779 118.046L75.021 183.881L6.50798 209.562C3.99198 210.505 2.17298 212.712 1.73498 215.351C1.29698 217.989 2.30998 220.659 4.39098 222.354L61.01 268.506L10.197 320.916C8.33098 322.841 7.63798 325.61 8.38098 328.18C9.12498 330.75 11.191 332.73 13.8 333.374L84.855 350.925L61.56 419.936C60.704 422.471 61.274 425.267 63.054 427.272C64.835 429.277 67.556 430.185 70.191 429.654L141.951 415.211L150.672 487.489C150.991 490.144 152.713 492.427 155.185 493.479C157.659 494.531 160.508 494.191 162.66 492.588L221.256 448.941L260.311 508.507C261.693 510.686 264.1 511.999 266.678 511.999C266.776 511.999 266.874 511.997 266.973 511.993C269.66 511.889 272.088 510.367 273.341 508.001L307.448 445.596L369.287 484.57C371.56 486.002 374.424 486.12 376.809 484.88C379.191 483.64 380.728 481.23 380.839 478.558L383.87 405.824L456.544 414.664C459.208 414.988 461.854 413.873 463.472 411.737C465.09 409.6 465.438 406.768 464.386 404.307L435.75 337.31L505.215 314.307C507.767 313.462 509.671 311.328 510.212 308.708C510.752 306.09 509.845 303.383 507.834 301.608Z" fill="#FFA600"/>
<g id="sun">
<path d="M254.35 409.64C339.992 409.64 409.419 340.267 409.419 254.691C409.419 169.115 339.992 99.742 254.35 99.742C168.708 99.742 99.281 169.115 99.281 254.691C99.281 340.267 168.708 409.64 254.35 409.64Z" fill="#FFCA00"/>
<path d="M254.354 99.743C250.47 99.743 246.622 99.89 242.811 100.171C323.061 106.072 386.336 172.996 386.336 254.692C386.336 336.387 323.061 403.311 242.811 409.213C246.622 409.493 250.471 409.641 254.354 409.641C339.995 409.641 409.422 340.268 409.422 254.693C409.422 169.116 339.995 99.743 254.354 99.743Z" fill="#FFCA00"/>
</g>
</g>
</svg>
